<svg xmlns="http://www.w3.org/2000/svg" viewBox="0 0 32 32" width="32" height="32">
  <!-- Background -->
  <rect width="32" height="32" fill="#667eea" rx="6"/>
  
  <!-- Camera body shadow -->
  <rect x="7" y="14" width="18" height="11" rx="2" fill="#000" opacity="0.2"/>
  
  <!-- Camera body -->
  <rect x="6" y="13" width="18" height="11" rx="2" fill="#f8f9fa" stroke="#dee2e6" stroke-width="0.5"/>
  
  <!-- Lens outer ring -->
  <circle cx="15" cy="18.5" r="4.5" fill="#343a40"/>
  
  <!-- Lens -->
  <circle cx="15" cy="18.5" r="3.5" fill="#667eea"/>
  <circle cx="15" cy="18.5" r="2.5" fill="#495057"/>
  <circle cx="15" cy="18.5" r="1.5" fill="#667eea"/>
  
  <!-- Lens reflection -->
  <circle cx="14" cy="17.5" r="0.8" fill="#ffffff" opacity="0.6"/>
  
  <!-- Flash -->
  <rect x="21" y="11" width="2.5" height="2" rx="0.5" fill="#ffc107"/>
  <rect x="21.25" y="11.25" width="2" height="1.5" rx="0.25" fill="#fff3cd"/>
  
  <!-- Viewfinder -->
  <rect x="10" y="10" width="5" height="2.5" rx="1" fill="#6c757d"/>
  <rect x="10.5" y="10.5" width="4" height="1.5" rx="0.5" fill="#adb5bd"/>
  
  <!-- Camera grip -->
  <circle cx="8" cy="16" r="0.4" fill="#adb5bd"/>
  <circle cx="8" cy="17.5" r="0.4" fill="#adb5bd"/>
  <circle cx="8" cy="19" r="0.4" fill="#adb5bd"/>
  <circle cx="8" cy="20.5" r="0.4" fill="#adb5bd"/>
  
  <!-- Shutter button -->
  <circle cx="19" cy="11" r="1" fill="#dc3545"/>
  <circle cx="19" cy="11" r="0.6" fill="#c82333"/>
  
  <!-- Brand dot -->
  <circle cx="12" cy="15.5" r="0.5" fill="#28a745"/>
</svg>
